<svg xmlns="http://www.w3.org/2000/svg" width="25" height="42" viewBox="0 0 25 42">
  <g id="Group_965" data-name="Group 965" transform="translate(-1400 -344)">
    <rect id="Rectangle_23" data-name="Rectangle 23" width="25" height="42" rx="4.464" transform="translate(1400 344)" fill="#ff7130"/>
    <path id="Rectangle_24" data-name="Rectangle 24" d="M4.464,0H20.536A4.464,4.464,0,0,1,25,4.464V5a0,0,0,0,1,0,0H0A0,0,0,0,1,0,5V4.464A4.464,4.464,0,0,1,4.464,0Z" transform="translate(1400 344)" fill="#ffb600"/>
    <path id="Rectangle_25" data-name="Rectangle 25" d="M0,0H25a0,0,0,0,1,0,0V4.536A4.464,4.464,0,0,1,20.536,9H4.464A4.464,4.464,0,0,1,0,4.536V0A0,0,0,0,1,0,0Z" transform="translate(1400 377)" fill="#ffb600"/>
    <circle id="Ellipse_3" data-name="Ellipse 3" cx="1.5" cy="1.5" r="1.5" transform="translate(1410.864 380.102)" fill="#ff7130"/>
  </g>
</svg>
