<svg id="Layer_1" data-name="Layer 1" xmlns="http://www.w3.org/2000/svg" viewBox="0 0 225.38 179.24"><defs><style>.cls-1{fill:#f2fbff;}.cls-10,.cls-2{fill:none;}.cls-10,.cls-2,.cls-4,.cls-6,.cls-8,.cls-9{stroke:#39bcff;stroke-linejoin:round;}.cls-2,.cls-4,.cls-6{stroke-linecap:round;}.cls-3{fill:#f0faff;}.cls-4,.cls-5,.cls-9{fill:#fff;}.cls-6,.cls-7,.cls-8{fill:#d6f1ff;}</style></defs><title>service</title><path class="cls-1" d="M231.35,137.16A103.16,103.16,0,1,0,34.22,179.73H222.16A102.82,102.82,0,0,0,231.35,137.16Z" transform="translate(-15.5 -34)"/><line class="cls-2" x1="12.11" y1="145.73" x2="213.27" y2="145.73"/><line class="cls-2" x1="0.5" y1="145.73" x2="6.95" y2="145.73"/><line class="cls-2" x1="218.43" y1="145.73" x2="224.88" y2="145.73"/><ellipse class="cls-3" cx="93.18" cy="175.37" rx="46.42" ry="3.87"/><path class="cls-4" d="M147.27,119.37A40.23,40.23,0,0,0,107,159.6v10.84c0,20.4-7.24,23.21-15.28,23.21H85.37v13.93h6.38c11.24,0,30.75-9.36,30.75-27.85H172c0,11.77-8.68,13.93-15.28,13.93h-6.38v13.93h6.38c12.7,0,30.75-2.71,30.75-27.86V159.6A40.23,40.23,0,0,0,147.27,119.37Z" transform="translate(-15.5 -34)"/><path class="cls-2" d="M147.27,119.37A40.23,40.23,0,0,0,107,159.6v10.84c0,20.4-7.24,23.21-15.28,23.21H85.37v13.93h6.38c11.24,0,30.75-9.36,30.75-27.85H172c0,11.77-8.68,13.93-15.28,13.93h-6.38v13.93h6.38c12.7,0,30.75-2.71,30.75-27.86V159.6A40.23,40.23,0,0,0,147.27,119.37Z" transform="translate(-15.5 -34)"/><polygon class="cls-5" points="141.06 86.92 131.77 93.11 122.49 86.92 122.49 79.18 141.06 79.18 141.06 86.92"/><polygon class="cls-2" points="141.06 86.92 131.77 93.11 122.49 86.92 122.49 79.18 141.06 79.18 141.06 86.92"/><path class="cls-6" d="M147.27,127.1,139.79,172a4.73,4.73,0,0,0,.44,2.89l2.41,4.81h9.29l2.41-4.81a4.73,4.73,0,0,0,.43-2.89Z" transform="translate(-15.5 -34)"/><path class="cls-4" d="M159.62,134.24l7-9.9a40,40,0,0,0-9.63-3.74l-9.75,6.5,8.84,7.57A2.4,2.4,0,0,0,159.62,134.24Z" transform="translate(-15.5 -34)"/><path class="cls-4" d="M134.92,134.24l-7-9.9a39.93,39.93,0,0,1,9.63-3.74l9.75,6.5-8.84,7.57A2.4,2.4,0,0,1,134.92,134.24Z" transform="translate(-15.5 -34)"/><line class="cls-2" x1="107.01" y1="127.15" x2="107.01" y2="145.72"/><line class="cls-2" x1="156.53" y1="127.15" x2="156.53" y2="145.72"/><path class="cls-4" d="M150.37,206h-4.64a6.19,6.19,0,1,1,0-12.38h4.64Z" transform="translate(-15.5 -34)"/><path class="cls-4" d="M85.37,206H80.73a6.19,6.19,0,0,1,0-12.38h4.64Z" transform="translate(-15.5 -34)"/><path class="cls-4" d="M173.07,85.58V79.13a25.79,25.79,0,1,0-51.58,0v6.45a5.16,5.16,0,0,0,0,10.32c.11,0,.21,0,.32,0a25.76,25.76,0,0,0,50.95,0c.11,0,.21,0,.32,0a5.16,5.16,0,0,0,0-10.32Z" transform="translate(-15.5 -34)"/><circle class="cls-7" cx="116.95" cy="61.27" r="3.22"/><circle class="cls-7" cx="146.61" cy="61.27" r="3.22"/><path class="cls-2" d="M140.83,86.89a4.2,4.2,0,0,0-7.76,0" transform="translate(-15.5 -34)"/><path class="cls-2" d="M161.48,86.87a4.2,4.2,0,0,0-7.76,0" transform="translate(-15.5 -34)"/><path class="cls-4" d="M168.75,95.9h0a2.32,2.32,0,0,0-1.68,1.36l-2.93,6.85a2.32,2.32,0,0,1-1.57,1.34l-2,.49a2.32,2.32,0,0,1-2.76-1.52c-1.18-2.74-2.68-5-5.53-6.46a7.25,7.25,0,0,0-3.24-.76h-3.6a7.25,7.25,0,0,0-3.24.76c-2.85,1.43-4.35,3.73-5.53,6.46a2.32,2.32,0,0,1-2.76,1.52l-2-.49a2.32,2.32,0,0,1-1.57-1.34l-2.93-6.85a2.32,2.32,0,0,0-1.68-1.36h-4.32c0,16.66,16.6,25.79,25.79,25.79s25.79-9.13,25.79-25.79Z" transform="translate(-15.5 -34)"/><path class="cls-2" d="M142.14,103.64a10.87,10.87,0,0,0,10.29,0" transform="translate(-15.5 -34)"/><path class="cls-5" d="M120,81.7S131.81,79,136.75,68.8a44.92,44.92,0,0,0,20.63,12.9c2.51.76-1-5.4,1.29-3.87A28.17,28.17,0,0,0,176.73,83c0-11.61-10.32-41.26-41.26-28.37C135.46,54.62,114.83,55.91,120,81.7Z" transform="translate(-15.5 -34)"/><path class="cls-2" d="M120,81.7S131.81,79,136.75,68.8a44.92,44.92,0,0,0,20.63,12.9c2.51.76-1-5.4,1.29-3.87A28.17,28.17,0,0,0,176.73,83c0-11.61-10.32-41.26-41.26-28.37C135.46,54.62,114.83,55.91,120,81.7Z" transform="translate(-15.5 -34)"/><path class="cls-2" d="M116.32,96.16v4.64a13.93,13.93,0,0,0,13.93,13.93h1.55" transform="translate(-15.5 -34)"/><path class="cls-2" d="M113.23,88.42V80.68a34,34,0,1,1,68.08,0v6.19" transform="translate(-15.5 -34)"/><path class="cls-4" d="M95.83,49.78h8.08a0,0,0,0,1,0,0V65.25a0,0,0,0,1,0,0H95.83a1.2,1.2,0,0,1-1.2-1.2V51A1.2,1.2,0,0,1,95.83,49.78Z"/><path class="cls-6" d="M116.32,96.16a3.1,3.1,0,1,0,6.19,0V86.87a3.1,3.1,0,0,0-6.19,0Z" transform="translate(-15.5 -34)"/><path class="cls-4" d="M176.33,83.78h8.08a0,0,0,0,1,0,0V99.25a0,0,0,0,1,0,0h-8.08a1.2,1.2,0,0,1-1.2-1.2V85A1.2,1.2,0,0,1,176.33,83.78Z" transform="translate(344.04 149.03) rotate(180)"/><path class="cls-6" d="M178.22,96.16a3.09,3.09,0,1,1-6.19,0V86.87a3.09,3.09,0,1,1,6.19,0Z" transform="translate(-15.5 -34)"/><circle class="cls-6" cx="120.94" cy="80.73" r="4.64"/><path class="cls-8" d="M118.2,201.64H124l-12.32-38.19a2.58,2.58,0,0,0-2.45-1.79H105.3Z" transform="translate(-15.5 -34)"/><path class="cls-7" d="M67.91,201.64H118.2l-12.9-40H58.55A2.58,2.58,0,0,0,56.1,165Z" transform="translate(-15.5 -34)"/><path class="cls-8" d="M67.91,201.64h52.87v6.45H73.06a5.16,5.16,0,0,1-5.16-5.16Z" transform="translate(-15.5 -34)"/><path class="cls-8" d="M120.78,201.64h23.34a1.29,1.29,0,0,1,1.29,1.29,5.16,5.16,0,0,1-5.16,5.16H120.78Z" transform="translate(-15.5 -34)"/><path class="cls-9" d="M89.42,180.23a2.86,2.86,0,0,1,1.37-2.41,3,3,0,0,0-2.32-1.25c-1-.1-1.92.58-2.43.58s-1.27-.57-2.09-.55a3.11,3.11,0,0,0-2.62,1.59c-1.12,1.94-.28,4.81.8,6.38.53.77,1.17,1.63,2,1.6s1.11-.52,2.08-.52,1.24.52,2.09.5,1.41-.78,1.94-1.56a6.94,6.94,0,0,0,.88-1.8A2.79,2.79,0,0,1,89.42,180.23Z" transform="translate(-15.5 -34)"/><line class="cls-2" x1="71.75" y1="139.27" x2="72.91" y2="138.11"/><path class="cls-10" d="M67.91,201.64H118.2l-12.9-40H58.55A2.58,2.58,0,0,0,56.1,165Z" transform="translate(-15.5 -34)"/></svg>